<mxfile host="app.diagrams.net" modified="2023-11-18T15:20:34.674Z" agent="Mozilla/5.0 (Windows NT 10.0; Win64; x64) AppleWebKit/537.36 (KHTML, like Gecko) Chrome/119.0.0.0 Safari/537.36" etag="wjujK-Q2yZfPxyw1EYpR" version="22.1.3" type="device">
  <diagram name="Page-1" id="f2Pt_aevgC_yM8Bk13s6">
    <mxGraphModel dx="1114" dy="610" grid="1" gridSize="10" guides="1" tooltips="1" connect="1" arrows="0" fold="1" page="1" pageScale="1" pageWidth="850" pageHeight="1100" math="0" shadow="0">
      <root>
        <mxCell id="0" />
        <mxCell id="1" parent="0" />
        <mxCell id="a2ZV1dYJp018_eMdCxYl-1" value="Member" style="shape=umlActor;verticalLabelPosition=bottom;verticalAlign=top;html=1;outlineConnect=0;" parent="1" vertex="1">
          <mxGeometry x="130" y="110" width="40" height="80" as="geometry" />
        </mxCell>
        <mxCell id="a2ZV1dYJp018_eMdCxYl-2" value="Search Book" style="ellipse;whiteSpace=wrap;html=1;" parent="1" vertex="1">
          <mxGeometry x="320" y="152" width="90" height="50" as="geometry" />
        </mxCell>
        <mxCell id="a2ZV1dYJp018_eMdCxYl-10" value="View Book" style="ellipse;whiteSpace=wrap;html=1;" parent="1" vertex="1">
          <mxGeometry x="320" y="222" width="90" height="50" as="geometry" />
        </mxCell>
        <mxCell id="a2ZV1dYJp018_eMdCxYl-11" value="" style="endArrow=none;html=1;rounded=0;entryX=0.067;entryY=0.78;entryDx=0;entryDy=0;exitX=0.5;exitY=0.5;exitDx=0;exitDy=0;exitPerimeter=0;entryPerimeter=0;" parent="1" source="a2ZV1dYJp018_eMdCxYl-1" target="yQQtFtqBZ3tOe7qxlqfQ-4" edge="1">
          <mxGeometry width="50" height="50" relative="1" as="geometry">
            <mxPoint x="240" y="160" as="sourcePoint" />
            <mxPoint x="300" y="110" as="targetPoint" />
          </mxGeometry>
        </mxCell>
        <mxCell id="a2ZV1dYJp018_eMdCxYl-12" value="" style="endArrow=none;html=1;rounded=0;entryX=0;entryY=0.5;entryDx=0;entryDy=0;exitX=0.5;exitY=0.5;exitDx=0;exitDy=0;exitPerimeter=0;" parent="1" source="a2ZV1dYJp018_eMdCxYl-1" target="a2ZV1dYJp018_eMdCxYl-10" edge="1">
          <mxGeometry width="50" height="50" relative="1" as="geometry">
            <mxPoint x="240" y="160" as="sourcePoint" />
            <mxPoint x="280" y="170" as="targetPoint" />
          </mxGeometry>
        </mxCell>
        <mxCell id="a2ZV1dYJp018_eMdCxYl-13" value="&lt;div&gt;Borrow Book&lt;/div&gt;" style="ellipse;whiteSpace=wrap;html=1;" parent="1" vertex="1">
          <mxGeometry x="320" y="292" width="90" height="50" as="geometry" />
        </mxCell>
        <mxCell id="a2ZV1dYJp018_eMdCxYl-14" value="" style="endArrow=none;html=1;rounded=0;exitX=0;exitY=0;exitDx=0;exitDy=0;entryX=0.5;entryY=0.5;entryDx=0;entryDy=0;entryPerimeter=0;" parent="1" source="a2ZV1dYJp018_eMdCxYl-13" target="a2ZV1dYJp018_eMdCxYl-1" edge="1">
          <mxGeometry width="50" height="50" relative="1" as="geometry">
            <mxPoint x="400" y="270" as="sourcePoint" />
            <mxPoint x="240" y="160" as="targetPoint" />
          </mxGeometry>
        </mxCell>
        <mxCell id="a2ZV1dYJp018_eMdCxYl-18" value="" style="endArrow=classic;html=1;rounded=0;" parent="1" edge="1">
          <mxGeometry width="50" height="50" relative="1" as="geometry">
            <mxPoint x="149.5" y="248" as="sourcePoint" />
            <mxPoint x="150" y="208" as="targetPoint" />
          </mxGeometry>
        </mxCell>
        <mxCell id="a2ZV1dYJp018_eMdCxYl-19" value="" style="strokeWidth=2;html=1;shape=mxgraph.flowchart.annotation_1;align=left;pointerEvents=1;rotation=90;" parent="1" vertex="1">
          <mxGeometry x="124" y="223" width="50" height="100" as="geometry" />
        </mxCell>
        <mxCell id="a2ZV1dYJp018_eMdCxYl-20" value="Student" style="shape=umlActor;verticalLabelPosition=bottom;verticalAlign=top;html=1;outlineConnect=0;" parent="1" vertex="1">
          <mxGeometry x="83" y="296" width="30" height="60" as="geometry" />
        </mxCell>
        <mxCell id="a2ZV1dYJp018_eMdCxYl-22" value="Faculty" style="shape=umlActor;verticalLabelPosition=bottom;verticalAlign=top;html=1;outlineConnect=0;" parent="1" vertex="1">
          <mxGeometry x="183" y="296" width="30" height="60" as="geometry" />
        </mxCell>
        <mxCell id="a2ZV1dYJp018_eMdCxYl-38" value="Admin" style="shape=umlActor;verticalLabelPosition=bottom;verticalAlign=top;html=1;outlineConnect=0;" parent="1" vertex="1">
          <mxGeometry x="690" y="110" width="40" height="80" as="geometry" />
        </mxCell>
        <mxCell id="a2ZV1dYJp018_eMdCxYl-40" value="" style="endArrow=none;html=1;rounded=0;exitX=0.033;exitY=0.3;exitDx=0;exitDy=0;exitPerimeter=0;entryX=0.5;entryY=0.5;entryDx=0;entryDy=0;entryPerimeter=0;" parent="1" source="a2ZV1dYJp018_eMdCxYl-36" target="a2ZV1dYJp018_eMdCxYl-1" edge="1">
          <mxGeometry width="50" height="50" relative="1" as="geometry">
            <mxPoint x="343" y="237" as="sourcePoint" />
            <mxPoint x="160" y="160" as="targetPoint" />
          </mxGeometry>
        </mxCell>
        <mxCell id="a2ZV1dYJp018_eMdCxYl-46" value="" style="endArrow=none;html=1;rounded=0;exitX=0.033;exitY=0.28;exitDx=0;exitDy=0;exitPerimeter=0;dashed=1;startArrow=classic;startFill=1;" parent="1" edge="1">
          <mxGeometry width="50" height="50" relative="1" as="geometry">
            <mxPoint x="321.97" y="557" as="sourcePoint" />
            <mxPoint x="160" y="160" as="targetPoint" />
            <Array as="points">
              <mxPoint x="270" y="270" />
            </Array>
          </mxGeometry>
        </mxCell>
        <mxCell id="a2ZV1dYJp018_eMdCxYl-48" value="" style="endArrow=none;html=1;rounded=0;entryX=0.5;entryY=0.5;entryDx=0;entryDy=0;entryPerimeter=0;exitX=1;exitY=0;exitDx=0;exitDy=0;" parent="1" source="a2ZV1dYJp018_eMdCxYl-47" target="a2ZV1dYJp018_eMdCxYl-38" edge="1">
          <mxGeometry width="50" height="50" relative="1" as="geometry">
            <mxPoint x="410" y="500" as="sourcePoint" />
            <mxPoint x="160" y="160" as="targetPoint" />
            <Array as="points">
              <mxPoint x="560" y="390" />
            </Array>
          </mxGeometry>
        </mxCell>
        <mxCell id="a2ZV1dYJp018_eMdCxYl-49" value="" style="endArrow=none;html=1;rounded=0;entryX=0.5;entryY=0.5;entryDx=0;entryDy=0;entryPerimeter=0;exitX=1;exitY=0.5;exitDx=0;exitDy=0;" parent="1" source="a2ZV1dYJp018_eMdCxYl-41" target="a2ZV1dYJp018_eMdCxYl-38" edge="1">
          <mxGeometry width="50" height="50" relative="1" as="geometry">
            <mxPoint x="420" y="440" as="sourcePoint" />
            <mxPoint x="710" y="90" as="targetPoint" />
            <Array as="points">
              <mxPoint x="560" y="360" />
            </Array>
          </mxGeometry>
        </mxCell>
        <mxCell id="a2ZV1dYJp018_eMdCxYl-53" value="" style="html=1;labelBackgroundColor=#ffffff;startArrow=none;startFill=0;startSize=6;endArrow=classic;endFill=1;endSize=6;jettySize=auto;orthogonalLoop=1;strokeWidth=1;dashed=1;fontSize=14;rounded=0;entryX=0.5;entryY=1;entryDx=0;entryDy=0;exitX=0.5;exitY=1;exitDx=0;exitDy=0;" parent="1" target="a2ZV1dYJp018_eMdCxYl-36" edge="1">
          <mxGeometry width="60" height="60" relative="1" as="geometry">
            <mxPoint x="365" y="452" as="sourcePoint" />
            <mxPoint x="365" y="340" as="targetPoint" />
          </mxGeometry>
        </mxCell>
        <mxCell id="a2ZV1dYJp018_eMdCxYl-59" value="Assign rights" style="ellipse;whiteSpace=wrap;html=1;" parent="1" vertex="1">
          <mxGeometry x="570" y="450" width="90" height="50" as="geometry" />
        </mxCell>
        <mxCell id="a2ZV1dYJp018_eMdCxYl-60" value="Add&amp;nbsp;Book" style="ellipse;whiteSpace=wrap;html=1;" parent="1" vertex="1">
          <mxGeometry x="570" y="520" width="90" height="50" as="geometry" />
        </mxCell>
        <mxCell id="1-HTzAExqHGb6sx7H-p--1" value="" style="endArrow=none;html=1;rounded=0;entryX=0.5;entryY=0.625;entryDx=0;entryDy=0;entryPerimeter=0;" parent="1" edge="1" target="a2ZV1dYJp018_eMdCxYl-38">
          <mxGeometry width="50" height="50" relative="1" as="geometry">
            <mxPoint x="660" y="477" as="sourcePoint" />
            <mxPoint x="710" y="143" as="targetPoint" />
            <Array as="points">
              <mxPoint x="760" y="477" />
              <mxPoint x="750" y="160" />
            </Array>
          </mxGeometry>
        </mxCell>
        <mxCell id="1-HTzAExqHGb6sx7H-p--2" value="" style="endArrow=none;html=1;rounded=0;entryX=0.5;entryY=0.5;entryDx=0;entryDy=0;entryPerimeter=0;" parent="1" edge="1" target="a2ZV1dYJp018_eMdCxYl-38">
          <mxGeometry width="50" height="50" relative="1" as="geometry">
            <mxPoint x="660" y="547" as="sourcePoint" />
            <mxPoint x="760" y="110" as="targetPoint" />
            <Array as="points">
              <mxPoint x="770" y="540" />
              <mxPoint x="760" y="150" />
            </Array>
          </mxGeometry>
        </mxCell>
        <mxCell id="1-HTzAExqHGb6sx7H-p--3" value="" style="swimlane;startSize=0;" parent="1" vertex="1">
          <mxGeometry x="240" y="10" width="440" height="670" as="geometry" />
        </mxCell>
        <mxCell id="yQQtFtqBZ3tOe7qxlqfQ-1" value="" style="html=1;labelBackgroundColor=#ffffff;startArrow=none;startFill=0;startSize=6;endArrow=classic;endFill=1;endSize=6;jettySize=auto;orthogonalLoop=1;strokeWidth=1;dashed=1;fontSize=14;rounded=0;" parent="1-HTzAExqHGb6sx7H-p--3" edge="1">
          <mxGeometry width="60" height="60" relative="1" as="geometry">
            <mxPoint x="120" y="80" as="sourcePoint" />
            <mxPoint x="120" y="50" as="targetPoint" />
          </mxGeometry>
        </mxCell>
        <mxCell id="yQQtFtqBZ3tOe7qxlqfQ-3" value="&amp;lt;&amp;lt;include&amp;gt;&amp;gt;" style="text;html=1;align=center;verticalAlign=middle;resizable=0;points=[];autosize=1;strokeColor=none;fillColor=none;rotation=0;" parent="1-HTzAExqHGb6sx7H-p--3" vertex="1">
          <mxGeometry x="112" y="48" width="90" height="30" as="geometry" />
        </mxCell>
        <mxCell id="yQQtFtqBZ3tOe7qxlqfQ-4" value="Register" style="ellipse;whiteSpace=wrap;html=1;" parent="1-HTzAExqHGb6sx7H-p--3" vertex="1">
          <mxGeometry x="80" y="1" width="90" height="50" as="geometry" />
        </mxCell>
        <mxCell id="a2ZV1dYJp018_eMdCxYl-27" value="Login" style="ellipse;whiteSpace=wrap;html=1;" parent="1-HTzAExqHGb6sx7H-p--3" vertex="1">
          <mxGeometry x="80" y="73" width="90" height="50" as="geometry" />
        </mxCell>
        <mxCell id="a2ZV1dYJp018_eMdCxYl-47" value="View Reports" style="ellipse;whiteSpace=wrap;html=1;" parent="1-HTzAExqHGb6sx7H-p--3" vertex="1">
          <mxGeometry x="80" y="601" width="90" height="50" as="geometry" />
        </mxCell>
        <mxCell id="a2ZV1dYJp018_eMdCxYl-45" value="Pay Fine" style="ellipse;whiteSpace=wrap;html=1;" parent="1-HTzAExqHGb6sx7H-p--3" vertex="1">
          <mxGeometry x="80" y="531" width="90" height="50" as="geometry" />
        </mxCell>
        <mxCell id="a2ZV1dYJp018_eMdCxYl-36" value="Return Book" style="ellipse;whiteSpace=wrap;html=1;" parent="1-HTzAExqHGb6sx7H-p--3" vertex="1">
          <mxGeometry x="80" y="352" width="90" height="50" as="geometry" />
        </mxCell>
        <mxCell id="yQQtFtqBZ3tOe7qxlqfQ-23" value="" style="html=1;labelBackgroundColor=#ffffff;startArrow=classic;startFill=1;startSize=6;endArrow=none;endFill=0;endSize=6;jettySize=auto;orthogonalLoop=1;strokeWidth=1;dashed=1;fontSize=14;rounded=0;entryX=0.5;entryY=0;entryDx=0;entryDy=0;exitX=0.5;exitY=1;exitDx=0;exitDy=0;" parent="1-HTzAExqHGb6sx7H-p--3" source="a2ZV1dYJp018_eMdCxYl-41" edge="1">
          <mxGeometry width="60" height="60" relative="1" as="geometry">
            <mxPoint x="120" y="511" as="sourcePoint" />
            <mxPoint x="124.5" y="532" as="targetPoint" />
          </mxGeometry>
        </mxCell>
        <mxCell id="yQQtFtqBZ3tOe7qxlqfQ-24" value="&amp;lt;&amp;lt;include&amp;gt;&amp;gt;" style="text;html=1;align=center;verticalAlign=middle;resizable=0;points=[];autosize=1;strokeColor=none;fillColor=none;" parent="1-HTzAExqHGb6sx7H-p--3" vertex="1">
          <mxGeometry x="112" y="491" width="90" height="30" as="geometry" />
        </mxCell>
        <mxCell id="a2ZV1dYJp018_eMdCxYl-42" value="&amp;lt;&amp;lt;include&amp;gt;&amp;gt;" style="text;html=1;align=center;verticalAlign=middle;resizable=0;points=[];autosize=1;strokeColor=none;fillColor=none;rotation=-15;" parent="1-HTzAExqHGb6sx7H-p--3" vertex="1">
          <mxGeometry x="170" y="342" width="90" height="30" as="geometry" />
        </mxCell>
        <mxCell id="a2ZV1dYJp018_eMdCxYl-32" value="" style="html=1;labelBackgroundColor=#ffffff;startArrow=none;startFill=0;startSize=6;endArrow=classic;endFill=1;endSize=6;jettySize=auto;orthogonalLoop=1;strokeWidth=1;dashed=1;fontSize=14;rounded=0;exitX=1;exitY=0.5;exitDx=0;exitDy=0;" parent="1-HTzAExqHGb6sx7H-p--3" source="a2ZV1dYJp018_eMdCxYl-36" edge="1">
          <mxGeometry width="60" height="60" relative="1" as="geometry">
            <mxPoint x="150" y="340" as="sourcePoint" />
            <mxPoint x="170" y="100" as="targetPoint" />
            <Array as="points">
              <mxPoint x="280" y="350" />
              <mxPoint x="280" y="101" />
            </Array>
          </mxGeometry>
        </mxCell>
        <mxCell id="yQQtFtqBZ3tOe7qxlqfQ-26" value="" style="html=1;labelBackgroundColor=#ffffff;startArrow=none;startFill=0;startSize=6;endArrow=classic;endFill=1;endSize=6;jettySize=auto;orthogonalLoop=1;strokeWidth=1;dashed=1;fontSize=14;rounded=0;exitX=1;exitY=0.5;exitDx=0;exitDy=0;entryX=0.922;entryY=0.74;entryDx=0;entryDy=0;entryPerimeter=0;" parent="1-HTzAExqHGb6sx7H-p--3" target="a2ZV1dYJp018_eMdCxYl-27" edge="1">
          <mxGeometry width="60" height="60" relative="1" as="geometry">
            <mxPoint x="170" y="307" as="sourcePoint" />
            <mxPoint x="170" y="30" as="targetPoint" />
            <Array as="points">
              <mxPoint x="270" y="280" />
              <mxPoint x="270" y="110" />
            </Array>
          </mxGeometry>
        </mxCell>
        <mxCell id="a2ZV1dYJp018_eMdCxYl-35" value="&amp;lt;&amp;lt;include&amp;gt;&amp;gt;" style="text;html=1;align=center;verticalAlign=middle;resizable=0;points=[];autosize=1;strokeColor=none;fillColor=none;rotation=-15;" parent="1-HTzAExqHGb6sx7H-p--3" vertex="1">
          <mxGeometry x="172" y="268" width="90" height="30" as="geometry" />
        </mxCell>
        <mxCell id="a2ZV1dYJp018_eMdCxYl-41" value="&lt;div&gt;Imposing Fine&lt;/div&gt;" style="ellipse;whiteSpace=wrap;html=1;" parent="1-HTzAExqHGb6sx7H-p--3" vertex="1">
          <mxGeometry x="80" y="441" width="90" height="50" as="geometry" />
        </mxCell>
        <mxCell id="wgR-TyuT3a_OQTY-RwEk-4" value="" style="html=1;labelBackgroundColor=#ffffff;startArrow=none;startFill=0;startSize=6;endArrow=classic;endFill=1;endSize=6;jettySize=auto;orthogonalLoop=1;strokeWidth=1;dashed=1;fontSize=14;rounded=0;entryX=0.933;entryY=0.26;entryDx=0;entryDy=0;entryPerimeter=0;" parent="1-HTzAExqHGb6sx7H-p--3" target="yQQtFtqBZ3tOe7qxlqfQ-4" edge="1">
          <mxGeometry width="60" height="60" relative="1" as="geometry">
            <mxPoint x="170" y="551" as="sourcePoint" />
            <mxPoint x="164.96000000000004" y="10" as="targetPoint" />
            <Array as="points">
              <mxPoint x="290" y="551" />
              <mxPoint x="290" y="12" />
            </Array>
          </mxGeometry>
        </mxCell>
        <mxCell id="wgR-TyuT3a_OQTY-RwEk-2" value="&amp;lt;&amp;lt;include&amp;gt;&amp;gt;" style="text;html=1;align=center;verticalAlign=middle;resizable=0;points=[];autosize=1;strokeColor=none;fillColor=none;rotation=0;" parent="1-HTzAExqHGb6sx7H-p--3" vertex="1">
          <mxGeometry x="194" y="530" width="90" height="30" as="geometry" />
        </mxCell>
        <mxCell id="sJOfhSjmGePpgdrklcR8-2" value="&amp;lt;&amp;lt;Extend&amp;gt;&amp;gt;" style="text;html=1;align=center;verticalAlign=middle;resizable=0;points=[];autosize=1;strokeColor=none;fillColor=none;rotation=79;" parent="1-HTzAExqHGb6sx7H-p--3" vertex="1">
          <mxGeometry x="18" y="390" width="90" height="30" as="geometry" />
        </mxCell>
        <mxCell id="sJOfhSjmGePpgdrklcR8-3" value="" style="endArrow=none;html=1;rounded=0;entryX=0.5;entryY=0.5;entryDx=0;entryDy=0;entryPerimeter=0;exitX=1;exitY=0;exitDx=0;exitDy=0;" parent="1-HTzAExqHGb6sx7H-p--3" target="a2ZV1dYJp018_eMdCxYl-38" edge="1">
          <mxGeometry width="50" height="50" relative="1" as="geometry">
            <mxPoint x="167" y="33" as="sourcePoint" />
            <mxPoint x="480" y="93" as="targetPoint" />
            <Array as="points">
              <mxPoint x="330" y="33" />
              <mxPoint x="390" y="100" />
            </Array>
          </mxGeometry>
        </mxCell>
        <mxCell id="sJOfhSjmGePpgdrklcR8-4" value="&amp;lt;&amp;lt;Extend&amp;gt;&amp;gt;" style="text;html=1;align=center;verticalAlign=middle;resizable=0;points=[];autosize=1;strokeColor=none;fillColor=none;rotation=0;" parent="1-HTzAExqHGb6sx7H-p--3" vertex="1">
          <mxGeometry x="112" y="406" width="90" height="30" as="geometry" />
        </mxCell>
        <mxCell id="sJOfhSjmGePpgdrklcR8-6" value="" style="html=1;labelBackgroundColor=#ffffff;startArrow=classic;startFill=1;startSize=6;endArrow=none;endFill=0;endSize=6;jettySize=auto;orthogonalLoop=1;strokeWidth=1;dashed=1;fontSize=14;rounded=0;exitX=0.5;exitY=1;exitDx=0;exitDy=0;" parent="1-HTzAExqHGb6sx7H-p--3" edge="1">
          <mxGeometry width="60" height="60" relative="1" as="geometry">
            <mxPoint x="125" y="331" as="sourcePoint" />
            <mxPoint x="125" y="350" as="targetPoint" />
          </mxGeometry>
        </mxCell>
        <mxCell id="sJOfhSjmGePpgdrklcR8-7" value="&amp;lt;&amp;lt;include&amp;gt;&amp;gt;" style="text;html=1;align=center;verticalAlign=middle;resizable=0;points=[];autosize=1;strokeColor=none;fillColor=none;" parent="1-HTzAExqHGb6sx7H-p--3" vertex="1">
          <mxGeometry x="114" y="332" width="90" height="30" as="geometry" />
        </mxCell>
        <mxCell id="_Jilc7hGMPf5Hgbk3acT-2" value="Delete Book" style="ellipse;whiteSpace=wrap;html=1;" vertex="1" parent="1-HTzAExqHGb6sx7H-p--3">
          <mxGeometry x="330" y="614" width="90" height="50" as="geometry" />
        </mxCell>
        <mxCell id="_Jilc7hGMPf5Hgbk3acT-1" value="ModifyBook" style="ellipse;whiteSpace=wrap;html=1;" vertex="1" parent="1-HTzAExqHGb6sx7H-p--3">
          <mxGeometry x="330" y="562" width="90" height="50" as="geometry" />
        </mxCell>
        <mxCell id="yQQtFtqBZ3tOe7qxlqfQ-8" value="" style="endArrow=none;html=1;rounded=0;entryX=0;entryY=0.5;entryDx=0;entryDy=0;" parent="1" target="a2ZV1dYJp018_eMdCxYl-27" edge="1">
          <mxGeometry width="50" height="50" relative="1" as="geometry">
            <mxPoint x="150" y="150" as="sourcePoint" />
            <mxPoint x="343" y="205" as="targetPoint" />
          </mxGeometry>
        </mxCell>
        <mxCell id="yQQtFtqBZ3tOe7qxlqfQ-22" value="" style="endArrow=none;html=1;rounded=0;entryX=0;entryY=0.5;entryDx=0;entryDy=0;" parent="1" target="a2ZV1dYJp018_eMdCxYl-2" edge="1">
          <mxGeometry width="50" height="50" relative="1" as="geometry">
            <mxPoint x="150" y="150" as="sourcePoint" />
            <mxPoint x="330" y="257" as="targetPoint" />
          </mxGeometry>
        </mxCell>
        <mxCell id="506A1Fin6WMT57WUjnqP-1" value="" style="endArrow=none;html=1;rounded=0;entryX=0.5;entryY=0.5;entryDx=0;entryDy=0;entryPerimeter=0;exitX=1;exitY=0;exitDx=0;exitDy=0;" parent="1" source="a2ZV1dYJp018_eMdCxYl-27" target="a2ZV1dYJp018_eMdCxYl-38" edge="1">
          <mxGeometry width="50" height="50" relative="1" as="geometry">
            <mxPoint x="410" y="100" as="sourcePoint" />
            <mxPoint x="600" y="40" as="targetPoint" />
            <Array as="points">
              <mxPoint x="560" y="90" />
            </Array>
          </mxGeometry>
        </mxCell>
        <mxCell id="sJOfhSjmGePpgdrklcR8-1" value="" style="endArrow=none;html=1;rounded=0;exitX=0;exitY=0.5;exitDx=0;exitDy=0;" parent="1" source="a2ZV1dYJp018_eMdCxYl-47" edge="1">
          <mxGeometry width="50" height="50" relative="1" as="geometry">
            <mxPoint x="312.21000000000004" y="660" as="sourcePoint" />
            <mxPoint x="150.00226277372255" y="152" as="targetPoint" />
            <Array as="points">
              <mxPoint x="270" y="370" />
            </Array>
          </mxGeometry>
        </mxCell>
        <mxCell id="_Jilc7hGMPf5Hgbk3acT-3" value="" style="endArrow=none;html=1;rounded=0;exitX=1.011;exitY=0.38;exitDx=0;exitDy=0;exitPerimeter=0;" edge="1" parent="1">
          <mxGeometry width="50" height="50" relative="1" as="geometry">
            <mxPoint x="659.99" y="591" as="sourcePoint" />
            <mxPoint x="710" y="146" as="targetPoint" />
            <Array as="points">
              <mxPoint x="779" y="546" />
              <mxPoint x="769" y="146" />
            </Array>
          </mxGeometry>
        </mxCell>
        <mxCell id="_Jilc7hGMPf5Hgbk3acT-4" value="" style="endArrow=none;html=1;rounded=0;entryX=0.575;entryY=0.388;entryDx=0;entryDy=0;entryPerimeter=0;" edge="1" parent="1">
          <mxGeometry width="50" height="50" relative="1" as="geometry">
            <mxPoint x="660" y="650" as="sourcePoint" />
            <mxPoint x="711" y="141.03999999999996" as="targetPoint" />
            <Array as="points">
              <mxPoint x="788" y="560" />
              <mxPoint x="788" y="140" />
            </Array>
          </mxGeometry>
        </mxCell>
      </root>
    </mxGraphModel>
  </diagram>
</mxfile>
